PathFileType	4	(X/Y/Z)	G:\マイドライブ\biomec\experimentalData\240725\SJ1.trc
DataRate	CameraRate	NumFrames	NumMarkers	Units	OrigDataRate	OrigDataStartFrame	OrigNumFrames
200.00	200.00	      4	52	mm	200.00	1147	      2292
Frame#	Time	handR			wrRI			wrRO			elbRI			elbRO			shRF			shRU			shRB			handL			wrLI			wrLO			elbLI			elbLO			shLF			shLU			shLB			toeR			baRI			baRO			heelR			anRI			anRO			knRI			knRO			troR			toeL			baLI			baLO			heelL			anLI			anLO			knLI			knLO			troL			head			earR			earL			clav			c7			ribR			ribL			xiph			ASISR			ASISL			PSISR			PSISL			t8			t11			L1			L3			LS			COX			
		X1	Y1	Z1	X2	Y2	Z2	X3	Y3	Z3	X4	Y4	Z4	X5	Y5	Z5	X6	Y6	Z6	X7	Y7	Z7	X8	Y8	Z8	X9	Y9	Z9	X10	Y10	Z10	X11	Y11	Z11	X12	Y12	Z12	X13	Y13	Z13	X14	Y14	Z14	X15	Y15	Z15	X16	Y16	Z16	X17	Y17	Z17	X18	Y18	Z18	X19	Y19	Z19	X20	Y20	Z20	X21	Y21	Z21	X22	Y22	Z22	X23	Y23	Z23	X24	Y24	Z24	X25	Y25	Z25	X26	Y26	Z26	X27	Y27	Z27	X28	Y28	Z28	X29	Y29	Z29	X30	Y30	Z30	X31	Y31	Z31	X32	Y32	Z32	X33	Y33	Z33	X34	Y34	Z34	X35	Y35	Z35	X36	Y36	Z36	X37	Y37	Z37	X38	Y38	Z38	X39	Y39	Z39	X40	Y40	Z40	X41	Y41	Z41	X42	Y42	Z42	X43	Y43	Z43	X44	Y44	Z44	X45	Y45	Z45	X46	Y46	Z46	X47	Y47	Z47	X48	Y48	Z48	X49	Y49	Z49	X50	Y50	Z50	X51	Y51	Z51	X52	Y52	Z52	

1147	5.730	760.28125	751.20520	1270.09363	735.76294	686.59576	1236.87695	680.93610	725.51599	1265.62415	564.74353	580.54138	1384.55371	626.72247	532.09216	1402.55249	697.46252	721.18109	1648.55554	593.48651	688.72247	1621.68542	639.72858	689.62634	1666.40466	747.58777	1043.01392	1290.35168	712.97235	1104.55493	1255.46448	668.39313	1053.75220	1291.52368	558.88037	1195.82129	1418.07520	625.30072	1244.40320	1433.94849	693.37146	1026.45142	1659.58435	636.49084	1060.68970	1681.63330	583.72955	1053.29065	1622.26489	764.32513	683.89972	151.99364	698.63959	744.67841	187.72072	661.92487	629.59119	201.54085	531.63696	741.01813	307.12070	645.33850	754.43420	322.81549	606.47064	667.44183	325.43106	704.69775	803.67444	680.66144	692.67517	701.40955	694.73395	715.59528	732.71362	1091.15515	796.14325	1145.61792	187.96080	743.96472	1081.96082	215.96988	691.87738	1180.96106	225.07825	542.94360	1073.08862	297.74384	663.96399	1057.65210	345.53931	613.27722	1135.89905	337.07675	698.79065	1008.34424	701.52533	678.28888	1110.40515	716.40582	707.60736	1074.82935	1100.85034	583.60437	873.69318	1923.55542	684.26172	792.27618	1781.63330	684.82935	954.16321	1781.63660	724.15424	880.44788	1641.33276	583.97400	879.36304	1686.74597	752.57880	789.78992	1328.05261	746.31763	999.63531	1335.03687	786.85864	886.55286	1489.47998	786.57336	795.35571	1179.75708	775.26648	1015.75293	1202.56677	615.20837	838.54315	1214.73657	613.92596	956.68359	1224.75977	560.12482	883.25464	1463.39807	596.51263	890.78650	1346.16479	615.35651	897.47400	1292.35498	615.66864	896.51666	1248.83594	604.25964	898.62817	1211.57703	573.72845	905.16913	1122.14001	
1148	5.735	759.64001	750.68622	1261.98071	735.16205	686.40472	1228.86206	680.40967	724.86542	1256.47949	564.29883	580.51782	1376.88989	626.12952	532.02466	1394.48767	698.75574	720.65784	1640.23523	594.26886	688.91724	1613.88599	640.63690	689.39465	1658.19788	747.24396	1042.77490	1281.73059	712.54205	1104.17419	1246.73889	667.50055	1053.33728	1283.86255	559.38287	1195.86816	1410.15405	625.86700	1244.40698	1425.75366	695.34741	1026.56238	1651.01917	638.43225	1060.87170	1673.31946	585.35712	1053.53857	1614.24414	769.18597	688.26062	144.07535	701.81415	747.28271	179.48613	666.82581	631.77710	192.37411	534.21533	740.42249	297.99115	647.66656	755.60089	314.15765	610.21222	668.07288	316.38647	706.51910	804.52594	671.90320	696.06805	701.56873	685.94885	714.92480	732.33557	1082.64075	798.00812	1143.05518	180.46973	744.92328	1080.08899	207.91780	694.00360	1179.68872	217.18114	543.07037	1073.70837	288.52759	664.09943	1056.30090	337.09067	614.33405	1135.33105	328.60034	700.48376	1007.61060	693.02612	680.92804	1110.20850	707.84375	708.13092	1074.66650	1092.34705	585.10425	873.61884	1915.90320	686.33429	792.15442	1773.62061	687.37915	954.08893	1773.79529	725.67950	880.21271	1632.89648	585.75128	879.45215	1679.06299	752.00653	789.57599	1319.66699	746.13617	999.45459	1326.46655	787.72162	886.26794	1480.75977	785.00958	794.93982	1171.56287	774.06323	1015.07623	1194.38660	613.90900	838.39435	1206.64392	612.95026	956.63715	1216.87708	560.47498	883.54590	1455.97717	596.49921	890.63287	1338.43591	615.01373	897.26965	1284.78650	614.78290	896.36316	1240.83435	603.14581	898.60162	1203.78857	573.03864	905.39258	1113.86707	
1149	5.740	758.83130	750.58423	1253.49927	734.30756	686.20386	1220.33606	679.66675	724.53522	1248.26147	563.89771	580.53320	1368.81384	625.62964	531.83295	1386.49597	699.97186	720.44617	1631.69092	595.31750	689.14478	1605.54797	642.01630	689.27740	1649.82849	746.82861	1042.42920	1272.89001	711.87872	1104.05688	1237.96997	667.43079	1053.24109	1275.03210	560.09943	1195.77112	1402.14331	626.56641	1244.66125	1417.38208	697.35828	1026.70667	1642.17371	640.59210	1060.94360	1664.71362	587.22675	1053.54895	1606.04089	773.35077	692.26019	135.77681	705.13666	750.22638	171.02232	672.06573	634.00616	183.09920	536.85645	739.83234	288.26382	649.89758	757.02814	305.44717	614.03192	668.87317	306.95126	709.37750	805.45166	663.43787	699.72955	701.98834	676.82184	714.30756	731.96674	1073.95325	799.52332	1139.72729	172.22536	745.91022	1077.92029	199.66595	696.28040	1178.33984	209.01778	543.39984	1074.59778	279.35513	663.98444	1055.10413	328.39261	615.08698	1135.91492	319.76761	702.73950	1006.99097	684.41309	683.83374	1109.92493	698.94049	707.52277	1074.55420	1083.81982	586.73242	873.13013	1908.18787	688.36523	791.99994	1765.37842	689.76947	953.91046	1765.47266	727.45013	880.11456	1624.13757	587.66608	879.58722	1671.21716	751.45490	789.38440	1311.26404	746.14075	999.30078	1317.78772	788.37396	885.83484	1471.60730	783.55298	794.73474	1162.88074	772.94104	1014.65015	1185.88196	612.81659	838.12537	1198.06775	612.12598	956.54022	1208.67065	561.23206	883.62762	1448.28662	596.41864	890.59491	1330.53052	614.35736	897.22266	1276.72559	615.27850	896.14532	1232.23254	601.81610	898.73047	1195.68994	572.10028	905.49933	1104.74963	
1150	5.745	758.08423	750.39014	1244.78894	733.51282	685.85986	1211.77917	678.78210	724.13580	1239.67310	563.50635	580.55920	1360.79419	625.10651	531.61737	1378.13550	701.17676	719.66016	1622.63586	595.97522	689.19940	1597.33936	643.15192	689.16602	1641.16919	746.52930	1042.32190	1263.65137	711.58472	1103.75476	1229.14893	666.90277	1053.28918	1266.42163	560.64868	1196.07764	1394.03784	627.47357	1244.59302	1408.70325	699.45905	1026.83020	1632.90027	643.01770	1061.06055	1655.78711	589.08051	1053.71179	1597.65479	777.93445	696.36047	127.55479	708.57953	753.24835	162.53726	677.59515	636.30505	173.79581	539.26764	739.22095	278.14633	652.07495	758.43274	296.41528	617.73920	669.61761	297.55127	711.46600	806.11194	654.30530	703.57715	702.43024	667.52234	713.44543	731.49066	1065.05017	801.44440	1136.63135	163.64949	746.69476	1075.60889	191.27110	698.61755	1176.66211	200.23177	543.83234	1075.37231	269.95633	663.85553	1053.94397	319.32919	616.53223	1135.08105	310.98407	704.57104	1006.28754	675.50659	686.82397	1109.74023	689.74487	706.47168	1074.21411	1075.31165	588.54706	873.13147	1899.97864	690.71521	791.93805	1756.88782	692.39191	953.93866	1757.11719	729.24139	879.90607	1615.05481	589.70691	879.69470	1663.07202	750.89673	788.74011	1302.36682	745.87665	999.01599	1308.72388	788.78052	885.22858	1462.07275	781.77808	794.10797	1154.18884	772.26300	1013.80438	1177.60535	611.51251	837.94012	1189.94421	610.79852	956.46729	1200.32898	561.68506	883.70093	1440.53943	596.08533	890.45380	1322.51660	613.76538	897.13538	1268.52490	614.19061	896.05206	1223.93152	600.30701	898.43115	1187.50989	570.98907	905.52606	1095.45459	
